<svg width="20" height="20" viewBox="0 0 20 20" fill="none" xmlns="http://www.w3.org/2000/svg">
<g id="scale=size20">
<g id="icon/ic_trashcan">
<g id="Vector">
<path fill-rule="evenodd" clip-rule="evenodd" d="M7.45479 2.94496C7.31312 2.94496 7.19346 3.06463 7.19346 3.20663V4.61029H12.6695V3.20663C12.6695 3.06463 12.5498 2.94496 12.4081 2.94496H7.45479ZM13.6145 4.61029H16.0565C16.3175 4.61029 16.5291 4.82163 16.5291 5.08263C16.5291 5.34363 16.3175 5.55496 16.0565 5.55496H3.80612C3.54546 5.55496 3.33379 5.34363 3.33379 5.08263C3.33379 4.82163 3.54546 4.61029 3.80612 4.61029H6.24846V3.20663C6.24846 2.54129 6.78979 2.00029 7.45479 2.00029H12.4081C13.0735 2.00029 13.6145 2.54129 13.6145 3.20663V4.61029ZM14.555 6.92019C14.555 6.65919 14.7663 6.44786 15.0273 6.44786C15.2883 6.44786 15.4996 6.65919 15.4996 6.92019V16.1642C15.4996 17.1609 14.689 17.9712 13.6926 17.9712H6.17029C5.17396 17.9712 4.36329 17.1609 4.36329 16.1642V6.92019C4.36329 6.65919 4.57496 6.44786 4.83562 6.44786C5.09662 6.44786 5.30829 6.65919 5.30829 6.92019V16.1642C5.30829 16.6395 5.69496 17.0265 6.17029 17.0265H13.6926C14.168 17.0265 14.555 16.6395 14.555 16.1642V6.92019ZM12.0092 13.6126V8.24356C12.0092 7.98223 11.7976 7.77123 11.5369 7.77123C11.2759 7.77123 11.0642 7.98223 11.0642 8.24356V13.6126C11.0642 13.8736 11.2759 14.0849 11.5369 14.0849C11.7976 14.0849 12.0092 13.8736 12.0092 13.6126ZM8.79876 8.24356V13.6126C8.79876 13.8736 8.58709 14.0849 8.32642 14.0849C8.06542 14.0849 7.85376 13.8736 7.85376 13.6126V8.24356C7.85376 7.98223 8.06542 7.77123 8.32642 7.77123C8.58709 7.77123 8.79876 7.98223 8.79876 8.24356Z" fill="#797D85"/>
<path fill-rule="evenodd" clip-rule="evenodd" d="M6.04846 3.20663C6.04846 2.4308 6.67937 1.80029 7.45479 1.80029H12.4081C13.1839 1.80029 13.8145 2.43084 13.8145 3.20663V4.41029H16.0565C16.4277 4.41029 16.7291 4.71099 16.7291 5.08263C16.7291 5.45427 16.4277 5.75496 16.0565 5.75496H3.80612C3.43509 5.75496 3.13379 5.45417 3.13379 5.08263C3.13379 4.71108 3.43509 4.41029 3.80612 4.41029H6.04846V3.20663ZM7.45479 2.20029C6.90021 2.20029 6.44846 2.65179 6.44846 3.20663V4.81029H3.80612C3.65582 4.81029 3.53379 4.93218 3.53379 5.08263C3.53379 5.23308 3.65582 5.35496 3.80612 5.35496H16.0565C16.2072 5.35496 16.3291 5.23299 16.3291 5.08263C16.3291 4.93227 16.2072 4.81029 16.0565 4.81029H13.4145V3.20663C13.4145 2.65175 12.963 2.20029 12.4081 2.20029H7.45479ZM7.41248 3.1639C7.39938 3.17702 7.39346 3.19267 7.39346 3.20663V4.41029H12.4695V3.20663C12.4695 3.19267 12.4635 3.17702 12.4504 3.1639C12.4373 3.15078 12.4218 3.14496 12.4081 3.14496H7.45479C7.44113 3.14496 7.42559 3.15078 7.41248 3.1639ZM6.99346 3.20663C6.99346 2.95433 7.2025 2.74496 7.45479 2.74496H12.4081C12.6604 2.74496 12.8695 2.95433 12.8695 3.20663V4.81029H6.99346V3.20663ZM4.16329 6.92019C4.16329 6.54864 4.46459 6.24786 4.83562 6.24786C5.2069 6.24786 5.50829 6.54855 5.50829 6.92019V16.1642C5.50829 16.5292 5.80551 16.8265 6.17029 16.8265H13.6926C14.0575 16.8265 14.355 16.5291 14.355 16.1642V6.92019C14.355 6.54874 14.6558 6.24786 15.0273 6.24786C15.3987 6.24786 15.6996 6.54874 15.6996 6.92019V16.1642C15.6996 17.2713 14.7994 18.1712 13.6926 18.1712H6.17029C5.06352 18.1712 4.16329 17.2713 4.16329 16.1642V6.92019ZM4.83562 6.64786C4.68532 6.64786 4.56329 6.76974 4.56329 6.92019V16.1642C4.56329 17.0504 5.28439 17.7712 6.17029 17.7712H13.6926C14.5785 17.7712 15.2996 17.0504 15.2996 16.1642V6.92019C15.2996 6.76965 15.1778 6.64786 15.0273 6.64786C14.8767 6.64786 14.755 6.76965 14.755 6.92019V16.1642C14.755 16.75 14.2784 17.2265 13.6926 17.2265H6.17029C5.5844 17.2265 5.10829 16.7499 5.10829 16.1642V6.92019C5.10829 6.76983 4.98635 6.64786 4.83562 6.64786ZM7.65376 8.24356C7.65376 7.87149 7.95524 7.57123 8.32642 7.57123C8.69736 7.57123 8.99876 7.87158 8.99876 8.24356V13.6126C8.99876 13.9841 8.69745 14.2849 8.32642 14.2849C7.95515 14.2849 7.65376 13.9842 7.65376 13.6126V8.24356ZM8.32642 7.97123C8.1756 7.97123 8.05376 8.09296 8.05376 8.24356V13.6126C8.05376 13.7629 8.1757 13.8849 8.32642 13.8849C8.47672 13.8849 8.59876 13.763 8.59876 13.6126V8.24356C8.59876 8.09287 8.47682 7.97123 8.32642 7.97123ZM11.5369 7.97123C11.3861 7.97123 11.2642 8.09296 11.2642 8.24356V13.6126C11.2642 13.7629 11.3862 13.8849 11.5369 13.8849C11.6872 13.8849 11.8092 13.763 11.8092 13.6126V8.24356C11.8092 8.09287 11.6873 7.97123 11.5369 7.97123ZM10.8642 8.24356C10.8642 7.87149 11.1657 7.57123 11.5369 7.57123C11.9078 7.57123 12.2092 7.87159 12.2092 8.24356V13.6126C12.2092 13.9841 11.9079 14.2849 11.5369 14.2849C11.1656 14.2849 10.8642 13.9842 10.8642 13.6126V8.24356Z" fill="#797D85"/>
</g>
</g>
</g>
</svg>
