<svg width="41" height="64" viewBox="0 0 41 64" fill="none" xmlns="http://www.w3.org/2000/svg">
<g clip-path="url(#clip0_116_51)">
<path d="M1.49999 7.98609C-1.87482 14.5118 0.63904 22.5591 7.11272 25.9597C10.8173 27.9054 13.4443 27.4673 13.4443 27.4673L23.5701 59.3992L28.2736 61.8693L30.1942 58.1572C30.1018 58.0542 30.0107 57.9527 29.9293 57.8303C26.709 53.0445 26.1985 47.0195 24.2917 41.6662C22.1228 35.5786 20.0615 29.4701 16.8329 23.8846C16.0202 23.4478 15.478 22.5925 15.3221 21.6732C14.6198 20.7038 14.5357 19.4145 15.7429 18.3894C19.035 15.5939 22.4111 12.9207 25.8894 10.3797C24.9126 7.02921 22.6471 4.06954 19.333 2.32823C12.8565 -1.07232 4.87343 1.46036 1.49999 7.98609ZM26.2275 57.3936L25.0478 57.7636L15.5553 27.2392L16.7336 26.8707L26.2275 57.3936ZM15.9361 13.3115C14.7288 15.6481 11.8714 16.5535 9.55622 15.3366C7.23966 14.1196 6.34146 11.2406 7.54734 8.90403C8.7546 6.57024 11.6106 5.66342 13.9272 6.88039C16.2438 8.09736 17.1433 10.9764 15.9361 13.3115Z" fill="#6D6D6D"/>
<path d="M25.4701 56.9472L26.6484 56.5772L17.1558 26.0542L15.9775 26.4228L25.4701 56.9472Z" fill="#D3D3D3"/>
<path d="M26.284 56.8414L27.4637 56.4715L17.9698 25.9485L16.7915 26.3171L26.284 56.8414Z" fill="#595959"/>
<path d="M1.92077 7.16968C-1.45267 13.6954 1.05982 21.7427 7.5335 25.1433C11.2381 27.089 13.8651 26.6523 13.8651 26.6523L23.9909 58.5828L28.6944 61.0542L30.1321 58.2712L32.1782 54.3129L33.2585 52.2239L28.555 49.7524L31.6815 43.7051L26.295 40.8748L29.4215 34.8261L23.4197 31.6718L26.3268 26.0501L21.8979 23.7232C23.29 22.6008 24.4835 21.1808 25.3623 19.484C28.7358 12.9569 26.2233 4.91099 19.7482 1.51043C13.2787 -1.89013 5.29558 0.64395 1.92077 7.16968ZM26.6483 56.5772L25.47 56.9471L15.9774 26.4228L17.1557 26.0542L26.6483 56.5758V56.5772ZM16.3582 12.4937C15.1524 14.8303 12.2936 15.7357 9.977 14.5188C7.66044 13.3018 6.76223 10.4228 7.9695 8.08762C9.17676 5.75243 12.0328 4.84562 14.3494 6.06259C16.6673 7.28095 17.5669 10.1599 16.3582 12.4937Z" fill="url(#paint0_linear_116_51)"/>
<g style="mix-blend-mode:multiply" opacity="0.09">
<path d="M19.0933 26.1878L24.2052 26.3672L19.2878 26.8122L23.8933 26.9736L19.4823 27.4367L23.5801 27.5814L19.6755 28.0598L23.2683 28.1864L19.87 28.6829L22.9565 28.7914L20.0646 29.3074L22.6433 29.3978L20.2578 29.9305L22.3315 30.0028L20.4523 30.5549L22.0197 30.6106L20.6482 31.1808L21.7065 31.2184L20.8428 31.8067L21.9452 31.8456L21.0373 32.4312L23.2104 32.5076L21.2318 33.0556L24.4728 33.1697L21.425 33.6773L25.7325 33.8289L21.6195 34.3032L26.9977 34.4923L21.8141 34.9263L27.3123 35.1196L22.0086 35.5522L26.9991 35.7274L22.2032 36.1766L26.6859 36.3352L22.3977 36.8011L26.3741 36.9416L22.5923 37.427L26.0609 37.5494L22.7868 38.0515L25.7477 38.1544L22.9813 38.6745L25.4359 38.7608L23.1745 39.2962L25.1241 39.3658L23.369 39.9193L24.8122 39.9708L23.5622 40.5424L24.5004 40.5758L23.7567 41.1669L25.142 41.2156L23.9513 41.79L26.4017 41.8762L24.1458 42.4145L27.6669 42.5382L24.339 43.0376L28.9293 43.1989L24.5335 43.6606L29.6523 43.8414L24.7267 44.2837L29.3405 44.4451L24.9212 44.9054L29.0287 45.0501L25.1144 45.5285L28.7169 45.6565L25.3089 46.1516L28.405 46.2615L25.5035 46.7775L28.0918 46.8679L25.698 47.4006L27.78 47.4729L25.8926 48.0236L27.4668 48.0793L26.0857 48.6481L27.155 48.6857L26.2816 49.274L26.8418 49.2935L26.4748 49.8971L27.0667 49.9179L26.6693 50.5216L28.3305 50.58L26.8639 51.146L29.5971 51.2434L27.0584 51.7691L30.8596 51.904L27.2516 52.3922L31.141 52.5299L27.4461 53.0167L30.8265 53.1363L27.6421 53.6426L30.5133 53.7441L27.8352 54.267L30.2001 54.3505L28.0311 54.8929L29.8855 54.9583L28.2257 55.5174L29.5709 55.5661L28.4202 56.1433L29.2577 56.1725L28.2243 56.7552L28.9431 56.7802" stroke="#515151" stroke-width="1.85" stroke-linecap="round" stroke-linejoin="round"/>
<path d="M15.0562 5.68428L22.773 5.95549L16.6691 6.35744L23.1579 6.58554L17.4555 7.00278L23.4973 7.21558L17.977 7.637L23.7926 7.84145L18.3413 8.26704L24.0492 8.46732L18.591 8.89152L24.27 9.0918L18.7469 9.51599L24.4576 9.71766L18.8159 10.1349L24.6135 10.3394L18.8063 10.7538L24.7363 10.9624L18.7152 11.3672L24.8301 11.5828L18.54 11.9791L24.895 12.2031L18.2723 12.5869L24.9295 12.822L17.897 13.1919L24.935 13.4395L17.3796 13.79L24.9143 14.0542L16.6401 14.3797L24.8646 14.669L15.3762 14.9527L24.7832 15.2837" stroke="#515151" stroke-width="1.85" stroke-linecap="round" stroke-linejoin="round"/>
<path d="M25.4824 57.274L28.6296 57.3853L25.6797 57.8971L28.3164 57.9903L25.8784 58.5229L28.0046 58.5981L26.9284 59.178L27.6927 59.2058" stroke="#515151" stroke-width="1.85" stroke-linecap="round" stroke-linejoin="round"/>
<path d="M11.844 0.617523L16.324 0.776077L10.3001 1.18081L17.8196 1.44506L9.13836 1.758L18.9372 2.10292L8.19325 2.34075L19.8409 2.75104L7.3861 2.93185L20.6039 3.39638L6.68796 3.52573L21.2606 4.03894L6.07674 4.12239L21.8277 4.67733L5.53589 4.71905L22.3258 5.31015L5.05712 5.3185L9.68473 5.48261L4.62803 5.92211L7.96283 6.03894L4.24584 6.52573L7.1281 6.62726L3.90505 7.13074L6.55965 7.22392L3.60289 7.73852L6.14711 7.82893L3.33798 8.34631L5.85323 8.43533L3.10619 8.95549L5.65455 9.0459L2.90751 9.56745L5.54003 9.66064L2.74056 10.1794L5.50829 10.2768L2.60259 10.7928L5.55521 10.8971L2.49773 11.4061L5.6849 11.5174L2.41908 12.0195L5.90704 12.1433L2.37079 12.637L6.23817 12.7733L2.3501 13.2545L6.7128 13.4089L2.35838 13.8748L7.41232 14.0528L2.39563 14.4923L8.62234 14.7121L2.46186 15.1113L24.6769 15.8929L2.55706 15.7302L24.5389 16.5049L2.68123 16.3533L24.3706 17.1168L2.83852 16.9764L24.1705 17.7274L3.02892 17.5994L23.9373 18.3352L3.25244 18.2253L23.671 18.9444L3.51183 18.8512L23.3675 19.5508L3.80985 19.4784L23.0253 20.1558L4.15202 20.1085L22.639 20.7594L4.53973 20.7385L22.2071 21.3602L4.97986 21.37L21.7215 21.9597L5.4807 22.0042L21.1765 22.5577L6.05329 22.6439L20.557 23.1544L6.70866 23.2823L20.1569 23.7566L7.47303 23.9263L21.4179 24.4172L8.38779 24.5758L22.6859 25.0793L9.51089 25.2323L23.947 25.7399L10.972 25.8985L15.0395 26.0417L13.45 26.605L14.1357 26.6286" stroke="#515151" stroke-width="1.85" stroke-linecap="round" stroke-linejoin="round"/>
</g>
</g>
<defs>
<linearGradient id="paint0_linear_116_51" x1="45.4532" y1="32.343" x2="-11.0912" y2="28.1254" gradientUnits="userSpaceOnUse">
<stop stop-color="#515151"/>
<stop offset="0.42" stop-color="#D9D9D9"/>
<stop offset="0.87" stop-color="#6B6B6B"/>
</linearGradient>
<clipPath id="clip0_116_51">
<rect width="41" height="64" fill="white"/>
</clipPath>
</defs>
</svg>
