<svg width="40" height="40" viewBox="0 0 40 40" fill="none" xmlns="http://www.w3.org/2000/svg">
<circle cx="20" cy="20" r="20" fill="#F3F3F3"/>
<path fill-rule="evenodd" clip-rule="evenodd" d="M20 9C22.7606 9 25 11.2406 25 14.0028C25 15.7249 24.1303 17.2439 22.8061 18.1444C22.8455 18.2839 22.8697 18.4325 22.8697 18.5841C22.8697 19.4512 22.1606 20.1637 21.2939 20.1668V24.4934C21.3303 24.4873 21.3697 24.4813 21.4091 24.4813H22.803C23.1303 24.4813 23.4 24.7511 23.4 25.0786V28.6108C23.4 28.9383 23.1303 29.2081 22.803 29.2081H21.4091C21.3697 29.2081 21.3303 29.2051 21.2939 29.196V29.7053C21.2939 30.4179 20.7121 31 20 31C19.2879 31 18.7061 30.4179 18.7061 29.7053V20.1637C17.8394 20.1637 17.1303 19.4512 17.1303 18.581C17.1303 18.4294 17.1515 18.2809 17.1939 18.1414C15.8697 17.247 15 15.7249 15 14.0028C15 11.2406 17.2394 9 20 9ZM20 11.0041C21.6545 11.0041 22.997 12.3473 22.997 14.0028C22.997 15.6582 21.6545 17.0014 20 17.0014C18.3455 17.0014 17.003 15.6582 17.003 14.0028C17.003 12.3473 18.3455 11.0041 20 11.0041Z" fill="#727272"/>
</svg>
