<svg width="40" height="40" viewBox="0 0 40 40" fill="none" xmlns="http://www.w3.org/2000/svg">
<path d="M25 20C25.9157 20 26.6397 20.7057 26.6397 21.605V22.6773C26.6405 22.9712 26.8836 23.21 27.1829 23.2108H31V34.4612C31 34.7673 30.767 35 30.4553 35H19V31.7846H19.5479C21.0496 31.7846 22.2732 30.5776 22.2732 29.1027C22.2732 27.6278 21.0496 26.4254 19.5479 26.4254H19V23.2108H22.8179C23.1195 23.2116 23.3642 22.9728 23.3658 22.6773V21.605C23.3658 20.7057 24.0843 20 25 20Z" fill="#8A3ED7" stroke="#8A3ED7" stroke-miterlimit="10"/>
<mask id="mask0_206_40" style="mask-type:luminance" maskUnits="userSpaceOnUse" x="0" y="4" width="32" height="32">
<path d="M32 4H0V36H32V4Z" fill="white"/>
</mask>
<g mask="url(#mask0_206_40)">
<path d="M25.0662 20.0008C25.9614 20.0008 26.6693 20.7032 26.6693 21.5985V22.6659C26.67 22.9585 26.9078 23.1962 27.2003 23.197H30.9322V34.3962C30.9322 34.701 30.7044 34.9326 30.3996 34.9326H19.2001V31.7318H19.7358C21.204 31.7318 22.4002 30.5303 22.4002 29.0621C22.4002 27.5939 21.204 26.397 19.7358 26.397H19.2001V23.197H22.9328C23.2277 23.1977 23.4669 22.96 23.4684 22.6659V21.5985C23.4684 20.7032 24.1709 20.0008 25.0662 20.0008ZM25.0662 18.9341C23.598 18.9341 22.4002 20.1303 22.4002 21.5985V22.1295H18.6691C18.3727 22.1288 18.1319 22.3695 18.1334 22.6659V26.9333C18.1342 27.2282 18.3742 27.4659 18.6691 27.4644H19.7358C20.631 27.4644 21.3335 28.1669 21.3335 29.0621C21.3335 29.9573 20.631 30.6651 19.7358 30.6651H18.6691C18.3742 30.6644 18.135 30.9021 18.1334 31.1962V35.4636C18.1327 35.76 18.3727 36 18.6691 35.9992H30.4004C31.2774 35.9992 31.9997 35.2731 31.9997 34.3962V22.6651C32.0012 22.3703 31.7635 22.1295 31.4686 22.1288H27.7367V21.5977C27.7367 20.1295 26.5352 18.9333 25.0669 18.9333L25.0662 18.9341ZM2.66108 8.79162C2.36622 8.79543 2.13078 9.03695 2.13383 9.33105V12.0008C2.11783 12.7276 3.21652 12.7276 3.20052 12.0008V9.33105C3.20433 9.03162 2.96052 8.78781 2.66108 8.79162ZM2.66108 6.12267C2.36469 6.12648 2.1285 6.37029 2.13383 6.66667V7.19771C2.11783 7.92457 3.21652 7.92457 3.20052 7.19771V6.66667C3.20662 6.36571 2.96204 6.11962 2.66108 6.12267ZM1.60201 4.00152C0.725035 4.00152 -0.000315195 4.72152 -0.000315195 5.59924V17.331C-0.00107712 17.6274 0.238929 17.8674 0.535317 17.8667H4.26721V18.3977C4.26721 19.8659 5.46496 21.0629 6.93318 21.0629C8.40141 21.0629 9.6022 19.8651 9.6022 18.3977V17.8667H12.7992V21.5985C12.8 21.8933 13.04 22.131 13.3349 22.1295H14.4016C15.2968 22.1295 16.0008 22.8373 16.0008 23.7326C16.0008 24.6278 15.2976 25.3303 14.4016 25.3303H13.3349C13.0385 25.3295 12.7985 25.5695 12.7992 25.8659V29.5977H1.60201C1.29724 29.5977 1.06638 29.3669 1.06638 29.0621V19.4644C1.08238 18.7375 -0.0163156 18.7375 -0.000315195 19.4644V29.0621C-0.000315195 29.939 0.724273 30.6651 1.60201 30.6651H13.3341C13.629 30.6644 13.8667 30.4236 13.8652 30.1288V26.397H14.4008C15.869 26.397 17.0668 25.2008 17.0668 23.7326C17.0668 22.2644 15.869 21.0629 14.4008 21.0629H13.8652V13.0629C13.8644 12.7703 13.6267 12.5326 13.3341 12.5318H12.2674C11.3721 12.5318 10.6697 11.8293 10.6697 10.9341C10.6697 10.0389 11.3721 9.33105 12.2674 9.33105H13.3341C13.6267 9.33029 13.8644 9.09257 13.8652 8.8V5.06362H25.0662C25.371 5.06362 25.6018 5.29448 25.6018 5.59924V16.8H22.401V16.2644C22.401 14.7962 21.2048 13.5985 19.7365 13.5985C18.2683 13.5985 17.0668 14.7962 17.0668 16.2644V16.8H15.469C14.7734 16.816 14.7734 17.8514 15.469 17.8667H17.6024C17.8973 17.8667 18.1357 17.6259 18.135 17.331V16.2644C18.135 15.3691 18.8413 14.6667 19.7373 14.6667C20.6333 14.6667 21.335 15.3691 21.335 16.2644V17.331C21.3343 17.6259 21.572 17.8651 21.8661 17.8667H26.1352C26.4316 17.8674 26.6716 17.6274 26.6708 17.331V5.59924C26.6693 4.72152 25.9432 4.00076 25.0662 4.00076H13.3067C13.0065 4.02819 12.7985 4.25752 12.7992 4.53181V8.26362H12.2682C10.7999 8.26362 9.60296 9.46514 9.60296 10.9333C9.60296 12.4015 10.8007 13.5977 12.2682 13.5977H12.7992V16.7985H9.06733C8.77475 16.7992 8.53703 17.037 8.53627 17.3295V18.3962C8.53627 19.2914 7.82997 19.9992 6.93395 19.9992C6.03792 19.9992 5.33467 19.2914 5.33467 18.3962V17.3295C5.33391 17.0347 5.0939 16.797 4.79904 16.7985H1.06638V5.59924C1.06638 5.29448 1.29724 5.06362 1.60201 5.06362H11.2007C11.9329 5.12838 11.9939 4.01448 11.2297 4L1.60201 4.00152Z" fill="black"/>
</g>
</svg>
