<svg width="40" height="47" viewBox="0 0 40 47" fill="none" xmlns="http://www.w3.org/2000/svg">
<mask id="path-1-inside-1_226_45" fill="white">
<path fill-rule="evenodd" clip-rule="evenodd" d="M13.0164 7C13.2737 3.09098 16.5259 0 20.5 0C24.4741 0 27.7263 3.09098 27.9836 7H40V47H0V33.9811C0.165039 33.9937 0.331787 34 0.5 34C4.08984 34 7 31.0898 7 27.5C7 23.9102 4.08984 21 0.5 21C0.331787 21 0.165039 21.0063 0 21.0189V7H13.0164Z"/>
</mask>
<path fill-rule="evenodd" clip-rule="evenodd" d="M13.0164 7C13.2737 3.09098 16.5259 0 20.5 0C24.4741 0 27.7263 3.09098 27.9836 7H40V47H0V33.9811C0.165039 33.9937 0.331787 34 0.5 34C4.08984 34 7 31.0898 7 27.5C7 23.9102 4.08984 21 0.5 21C0.331787 21 0.165039 21.0063 0 21.0189V7H13.0164Z" fill="white"/>
<path d="M13.0164 7V10H15.8254L16.0099 7.19703L13.0164 7ZM27.9836 7L24.9901 7.19704L25.1746 10H27.9836V7ZM40 7H43V4H40V7ZM40 47V50H43V47H40ZM0 47H-3V50H0V47ZM0 33.9811L0.22789 30.9897L-3 30.7438L-3 33.9811H0ZM0 21.0189H-3V24.2562L0.22789 24.0103L0 21.0189ZM0 7V4H-3V7H0ZM16.0099 7.19703C16.1641 4.8545 18.1167 3 20.5 3V-3C14.935 -3 10.3833 1.32746 10.0229 6.80297L16.0099 7.19703ZM20.5 3C22.8833 3 24.8359 4.8545 24.9901 7.19704L30.9771 6.80296C30.6167 1.32747 26.065 -3 20.5 -3V3ZM40 4H27.9836V10H40V4ZM43 47V7H37V47H43ZM0 50H40V44H0V50ZM-3 33.9811V47H3V33.9811H-3ZM0.5 31C0.407279 31 0.316552 30.9965 0.22789 30.9897L-0.22789 36.9724C0.0135257 36.9908 0.256296 37 0.5 37V31ZM4 27.5C4 29.433 2.43299 31 0.5 31V37C5.7467 37 10 32.7467 10 27.5H4ZM0.5 24C2.43299 24 4 25.567 4 27.5H10C10 22.2533 5.7467 18 0.5 18V24ZM0.22789 24.0103C0.316552 24.0035 0.407279 24 0.5 24V18C0.256296 18 0.0135257 18.0092 -0.22789 18.0276L0.22789 24.0103ZM-3 7V21.0189H3V7H-3ZM13.0164 4H0V10H13.0164V4Z" fill="#9148DA" mask="url(#path-1-inside-1_226_45)"/>
<line x1="20.5" y1="20.5" x2="20.5" y2="32.5" stroke="#9148DA" stroke-width="3" stroke-linecap="round"/>
<line x1="14.5" y1="26.5" x2="26.5" y2="26.5" stroke="#9148DA" stroke-width="3" stroke-linecap="round"/>
</svg>
