<svg width="90" height="107" viewBox="0 0 90 107" fill="none" xmlns="http://www.w3.org/2000/svg">
<mask id="path-1-inside-1_219_40" fill="white">
<path fill-rule="evenodd" clip-rule="evenodd" d="M28.007 17C28.2717 7.56624 36.0022 0 45.5 0C54.9978 0 62.7283 7.56624 62.993 17H90V107H0V79.993C0.166098 79.9977 0.332775 80 0.5 80C10.165 80 18 72.165 18 62.5C18 52.835 10.165 45 0.5 45C0.332775 45 0.166098 45.0023 0 45.007V17H28.007Z"/>
</mask>
<path fill-rule="evenodd" clip-rule="evenodd" d="M28.007 17C28.2717 7.56624 36.0022 0 45.5 0C54.9978 0 62.7283 7.56624 62.993 17H90V107H0V79.993C0.166098 79.9977 0.332775 80 0.5 80C10.165 80 18 72.165 18 62.5C18 52.835 10.165 45 0.5 45C0.332775 45 0.166098 45.0023 0 45.007V17H28.007Z" fill="white"/>
<path d="M28.007 17V22H32.8687L33.005 17.1402L28.007 17ZM62.993 17L57.995 17.1402L58.1313 22H62.993V17ZM90 17H95V12H90V17ZM90 107V112H95V107H90ZM0 107H-5V112H0V107ZM0 79.993L0.14027 74.995L-5 74.8507V79.993H0ZM0 45.007H-5V50.1492L0.140156 50.005L0 45.007ZM0 17V12H-5V17H0ZM33.005 17.1402C33.194 10.4046 38.7167 5 45.5 5V-5C33.2878 -5 23.3493 4.72792 23.009 16.8598L33.005 17.1402ZM45.5 5C52.2833 5 57.806 10.4046 57.995 17.1402L67.991 16.8598C67.6507 4.72792 57.7122 -5 45.5 -5V5ZM90 12H62.993V22H90V12ZM95 107V17H85V107H95ZM0 112H90V102H0V112ZM-5 79.993V107H5V79.993H-5ZM0.5 75C0.379465 75 0.25955 74.9983 0.14027 74.995L-0.14027 84.991C0.0726463 84.997 0.286085 85 0.5 85V75ZM13 62.5C13 69.4036 7.40356 75 0.5 75V85C12.9264 85 23 74.9264 23 62.5H13ZM0.5 50C7.40356 50 13 55.5964 13 62.5H23C23 50.0736 12.9264 40 0.5 40V50ZM0.140156 50.005C0.259588 50.0017 0.379542 50 0.5 50V40C0.286008 40 0.0726082 40.003 -0.140156 40.009L0.140156 50.005ZM-5 17V45.007H5V17H-5ZM28.007 12H0V22H28.007V12Z" fill="#9148DA" mask="url(#path-1-inside-1_219_40)"/>
<line x1="45.5" y1="47.5" x2="45.5" y2="77.5" stroke="#9148DA" stroke-width="5" stroke-linecap="round"/>
<line x1="30.5" y1="61.5" x2="60.5" y2="61.5" stroke="#9148DA" stroke-width="5" stroke-linecap="round"/>
</svg>
