<svg width="20" height="20" viewBox="0 0 20 20" fill="none" xmlns="http://www.w3.org/2000/svg">
<path fill-rule="evenodd" clip-rule="evenodd" d="M3.88388 2.11612C3.39573 1.62796 2.60427 1.62796 2.11612 2.11612C1.62796 2.60427 1.62796 3.39573 2.11612 3.88388L8.26928 10.037L2.11738 16.189C1.62922 16.6771 1.62922 17.4686 2.11738 17.9567C2.60553 18.4449 3.39699 18.4449 3.88514 17.9567L10.037 11.8048L16.189 17.9567C16.6771 18.4449 17.4686 18.4449 17.9567 17.9567C18.4449 17.4686 18.4449 16.6771 17.9567 16.189L11.8048 10.037L17.958 3.88388C18.4461 3.39573 18.4461 2.60427 17.958 2.11612C17.4698 1.62796 16.6784 1.62796 16.1902 2.11612L10.037 8.26928L3.88388 2.11612Z" fill="black"/>
</svg>
